# xmcd
#
# Track frame offsets:
#	150
#	17460
#	31453
#	44179
#	56591
#	71963
#	84779
#	99626
#	112963
#	125759
#	136994
#	153701
#	167876
#	180770
#	192643
#	210151
#	224934
#	237591
#	257926
#	275446
#
# Disc length: 3867 seconds
#
# Revision: 0
# Processed by: cddbd v1.5.1PL2 Copyright (c) Steve Scherf et al.
# Submitted via: audiograbber 1.83.01
#
DISCID=320f1914
DTITLE=VARIOS - BOATE AZUL 2006
DYEAR=2006
DGENRE=SERTANEJO ROMANTICO
TTITLE0=01 MATO GROSSO E MATHIAS - 24 HORAS DE AMOR
TTITLE1=02 LOURENÇO E LOURIVAL - A CRUZ QUE CARREGO
TTITLE2=03 TEODORO E SAMPAIO - AMANDO ESCONDIDO
TTITLE3=04 CHICO REY E PARANÁ - AMOR COM AMOR SE PAGA
TTITLE4=05 TRIO PARADA DURA - BLUSA VERMELHA
TTITLE5=06 PEDRO E PAULO - CASA DOS PRAZERES
TTITLE6=07 ZEZÉ DI CAMARGO E LUCIANO - CORAÇÃO DE VIDRO
TTITLE7=08 DUDUCA E DALVAN - DAMA DE VERMELHO
TTITLE8=09 CHITÃOZINHO E XORORÓ - ELA FEZ MINHA CABEÇA
TTITLE9=10 JOÃO MINEIRO E MARCIANO - EU VOLTO AMANHÃ
TTITLE10=11 JULIANO E JARDEL - FIM DE NOITE
TTITLE11=12 TRIO PARADA DURA - CAMISOLA PRETA
TTITLE12=13 CHICO REY E PARANÁ - MINHA SERENATA
TTITLE13=14 MILIONÁRIO E JOSÉ RICO - NASCI PRA TE AMAR
TTITLE14=15 CHICO REY E PARANÁ - QUEM SERÁ SEU OUTRO AMOR
TTITLE15=16 BARRERITO - DAMA DE VESTIDO LONGO
TTITLE16=17 JAD E JEFFERSON - SACO DE OURO
TTITLE17=18 JOAQUIM E MANUEL - SOM DE CRIASTAL
TTITLE18=19 SÉRGIO E SERGINHO - TONELADAS DE PAIXÃO
TTITLE19=20 CHICO REY E PARANÁ - TRANQUE A PORTA E ME BEIJE
EXTD=
EXTT0=
EXTT1=
EXTT2=
EXTT3=
EXTT4=
EXTT5=
EXTT6=
EXTT7=
EXTT8=
EXTT9=
EXTT10=
EXTT11=
EXTT12=
EXTT13=
EXTT14=
EXTT15=
EXTT16=
EXTT17=
EXTT18=
EXTT19=
PLAYORDER=
